MutatorSansInstance_0-400.ufo
<glyph name="comma" format="2">
  <advance width="219"/>
  <unicode hex="002C"/>
  <outline>
    <contour>
      <point x="135" y="0" type="line"/>
      <point x="135" y="160" type="line"/>
      <point x="85" y="160" type="line"/>
      <point x="85" y="0" type="line"/>
      <point x="117" y="-8" type="line"/>
      <point x="106" y="12" type="line"/>
      <point x="84" y="-93" type="line"/>
      <point x="96" y="-95" type="line"/>
    </contour>
  </outline>
</glyph>
<glyph name="A" format="2">
  <advance width="720"/>
  <unicode hex="0041"/>
  <outline>
    <contour>
      <point x="36" y="0" type="line"/>
      <point x="79" y="0" type="line"/>
      <point x="363" y="700" type="line"/>
      <point x="325" y="700" type="line"/>
    </contour>
    <contour>
      <point x="147" y="188" type="line"/>
      <point x="577" y="188" type="line"/>
      <point x="577" y="222" type="line"/>
      <point x="147" y="222" type="line"/>
    </contour>
    <contour>
      <point x="638" y="0" type="line"/>
      <point x="686" y="0" type="line"/>
      <point x="397" y="700" type="line"/>
      <point x="354" y="700" type="line"/>
    </contour>
    <contour>
      <point x="331" y="662" type="line"/>
      <point x="393" y="662" type="line"/>
      <point x="393" y="700" type="line"/>
      <point x="331" y="700" type="line"/>
    </contour>
  </outline>
</glyph>
<glyph name="B" format="2">
  <advance width="735"/>
  <unicode hex="0042"/>
  <outline>
    <contour>
      <point x="84" y="0" type="line"/>
      <point x="124" y="0" type="line"/>
      <point x="124" y="700" type="line"/>
      <point x="84" y="700" type="line"/>
    </contour>
    <contour>
      <point x="104" y="333" type="line"/>
      <point x="478" y="333" type="line" smooth="yes"/>
      <point x="589" y="333"/>
      <point x="640" y="269"/>
      <point x="640" y="183" type="curve" smooth="yes"/>
      <point x="640" y="95"/>
      <point x="587" y="36"/>
      <point x="472" y="36" type="curve" smooth="yes"/>
      <point x="104" y="36" type="line"/>
      <point x="104" y="0" type="line"/>
      <point x="462" y="0" type="line" smooth="yes"/>
      <point x="618" y="0"/>
      <point x="679" y="81"/>
      <point x="679" y="183" type="curve" smooth="yes"/>
      <point x="679" y="273"/>
      <point x="629" y="349"/>
      <point x="508" y="362" type="curve"/>
      <point x="512" y="348" type="line"/>
      <point x="603" y="368"/>
      <point x="643" y="439"/>
      <point x="643" y="517" type="curve" smooth="yes"/>
      <point x="643" y="618"/>
      <point x="593" y="700"/>
      <point x="432" y="700" type="curve" smooth="yes"/>
      <point x="104" y="700" type="line"/>
      <point x="104" y="664" type="line"/>
      <point x="442" y="664" type="line" smooth="yes"/>
      <point x="562" y="664"/>
      <point x="604" y="603"/>
      <point x="604" y="517" type="curve" smooth="yes"/>
      <point x="604" y="431"/>
      <point x="553" y="368"/>
      <point x="442" y="368" type="curve" smooth="yes"/>
      <point x="104" y="368" type="line"/>
    </contour>
  </outline>
</glyph>
<glyph name="C" format="2">
  <advance width="821"/>
  <unicode hex="0043"/>
  <outline>
    <contour>
      <point x="719" y="269" type="line"/>
      <point x="695" y="92"/>
      <point x="586" y="26"/>
      <point x="426" y="26" type="curve" smooth="yes"/>
      <point x="400" y="26" type="line" smooth="yes"/>
      <point x="218" y="26"/>
      <point x="102" y="112"/>
      <point x="102" y="352" type="curve" smooth="yes"/>
      <point x="102" y="591"/>
      <point x="218" y="674"/>
      <point x="400" y="674" type="curve" smooth="yes"/>
      <point x="426" y="674" type="line" smooth="yes"/>
      <point x="585" y="674"/>
      <point x="694" y="611"/>
      <point x="719" y="438" type="curve"/>
      <point x="758" y="442" type="line"/>
      <point x="730" y="631"/>
      <point x="607" y="710"/>
      <point x="426" y="710" type="curve" smooth="yes"/>
      <point x="400" y="710" type="line" smooth="yes"/>
      <point x="192" y="710"/>
      <point x="62" y="607"/>
      <point x="62" y="352" type="curve" smooth="yes"/>
      <point x="62" y="96"/>
      <point x="192" y="-10"/>
      <point x="400" y="-10" type="curve" smooth="yes"/>
      <point x="426" y="-10" type="line" smooth="yes"/>
      <point x="609" y="-10"/>
      <point x="732" y="71"/>
      <point x="759" y="264" type="curve"/>
    </contour>
  </outline>
</glyph>
<glyph name="D" format="2">
  <advance width="752"/>
  <unicode hex="0044"/>
  <outline>
    <contour>
      <point x="84" y="0" type="line"/>
      <point x="124" y="0" type="line"/>
      <point x="124" y="700" type="line"/>
      <point x="84" y="700" type="line"/>
    </contour>
    <contour>
      <point x="108" y="664" type="line"/>
      <point x="328" y="664" type="line" smooth="yes"/>
      <point x="521" y="664"/>
      <point x="650" y="591"/>
      <point x="650" y="352" type="curve" smooth="yes"/>
      <point x="650" y="112"/>
      <point x="521" y="36"/>
      <point x="328" y="36" type="curve" smooth="yes"/>
      <point x="108" y="36" type="line"/>
      <point x="108" y="0" type="line"/>
      <point x="328" y="0" type="line" smooth="yes"/>
      <point x="546" y="0"/>
      <point x="690" y="96"/>
      <point x="690" y="352" type="curve" smooth="yes"/>
      <point x="690" y="607"/>
      <point x="546" y="700"/>
      <point x="328" y="700" type="curve" smooth="yes"/>
      <point x="108" y="700" type="line"/>
    </contour>
  </outline>
</glyph>
<glyph name="E" format="2">
  <advance width="668"/>
  <unicode hex="0045"/>
  <anchor x="337" y="746" name="top"/>
  <outline>
    <contour>
      <point x="84" y="0" type="line"/>
      <point x="124" y="0" type="line"/>
      <point x="124" y="700" type="line"/>
      <point x="84" y="700" type="line"/>
    </contour>
    <contour>
      <point x="104" y="664" type="line"/>
      <point x="596" y="664" type="line"/>
      <point x="596" y="700" type="line"/>
      <point x="104" y="700" type="line"/>
    </contour>
    <contour>
      <point x="104" y="0" type="line"/>
      <point x="596" y="0" type="line"/>
      <point x="596" y="36" type="line"/>
      <point x="104" y="36" type="line"/>
    </contour>
    <contour>
      <point x="104" y="334" type="line"/>
      <point x="536" y="334" type="line"/>
      <point x="536" y="370" type="line"/>
      <point x="104" y="370" type="line"/>
    </contour>
  </outline>
</glyph>
<glyph name="F" format="2">
  <advance width="700"/>
  <unicode hex="0046"/>
  <outline>
    <contour>
      <point x="84" y="0" type="line"/>
      <point x="124" y="0" type="line"/>
      <point x="124" y="700" type="line"/>
      <point x="84" y="700" type="line"/>
    </contour>
    <contour>
      <point x="104" y="664" type="line"/>
      <point x="616" y="664" type="line"/>
      <point x="616" y="700" type="line"/>
      <point x="104" y="700" type="line"/>
    </contour>
    <contour>
      <point x="104" y="306" type="line"/>
      <point x="596" y="306" type="line"/>
      <point x="596" y="342" type="line"/>
      <point x="104" y="342" type="line"/>
    </contour>
  </outline>
</glyph>
<glyph name="G" format="2">
  <advance width="854"/>
  <unicode hex="0047"/>
  <outline>
    <contour>
      <point x="338" y="300" type="line"/>
      <point x="737" y="300" type="line"/>
      <point x="737" y="216" type="line"/>
      <point x="750" y="0" type="line"/>
      <point x="774" y="0" type="line"/>
      <point x="774" y="333" type="line"/>
      <point x="338" y="333" type="line"/>
    </contour>
    <contour>
      <point x="739" y="281" type="line"/>
      <point x="715" y="92"/>
      <point x="606" y="26"/>
      <point x="446" y="26" type="curve" smooth="yes"/>
      <point x="400" y="26" type="line" smooth="yes"/>
      <point x="218" y="26"/>
      <point x="102" y="112"/>
      <point x="102" y="352" type="curve" smooth="yes"/>
      <point x="102" y="591"/>
      <point x="224" y="674"/>
      <point x="405" y="674" type="curve" smooth="yes"/>
      <point x="452" y="674" type="line" smooth="yes"/>
      <point x="610" y="674"/>
      <point x="714" y="611"/>
      <point x="739" y="438" type="curve"/>
      <point x="778" y="442" type="line"/>
      <point x="750" y="631"/>
      <point x="633" y="710"/>
      <point x="452" y="710" type="curve" smooth="yes"/>
      <point x="405" y="710" type="line" smooth="yes"/>
      <point x="197" y="710"/>
      <point x="62" y="607"/>
      <point x="62" y="352" type="curve" smooth="yes"/>
      <point x="62" y="96"/>
      <point x="192" y="-10"/>
      <point x="400" y="-10" type="curve" smooth="yes"/>
      <point x="446" y="-10" type="line" smooth="yes"/>
      <point x="629" y="-10"/>
      <point x="740" y="71"/>
      <point x="761" y="276" type="curve"/>
    </contour>
  </outline>
</glyph>
<glyph name="H" format="2">
  <advance width="732"/>
  <unicode hex="0048"/>
  <outline>
    <contour>
      <point x="84" y="0" type="line"/>
      <point x="124" y="0" type="line"/>
      <point x="124" y="700" type="line"/>
      <point x="84" y="700" type="line"/>
    </contour>
    <contour>
      <point x="105" y="334" type="line"/>
      <point x="630" y="334" type="line"/>
      <point x="630" y="370" type="line"/>
      <point x="105" y="370" type="line"/>
    </contour>
    <contour>
      <point x="608" y="0" type="line"/>
      <point x="648" y="0" type="line"/>
      <point x="648" y="700" type="line"/>
      <point x="608" y="700" type="line"/>
    </contour>
  </outline>
</glyph>
<glyph name="I" format="2">
  <advance width="564"/>
  <unicode hex="0049"/>
  <outline>
    <contour>
      <point x="264" y="0" type="line"/>
      <point x="304" y="0" type="line"/>
      <point x="304" y="700" type="line"/>
      <point x="264" y="700" type="line"/>
    </contour>
    <contour>
      <point x="84" y="664" type="line"/>
      <point x="480" y="664" type="line"/>
      <point x="480" y="700" type="line"/>
      <point x="84" y="700" type="line"/>
    </contour>
    <contour>
      <point x="84" y="0" type="line"/>
      <point x="480" y="0" type="line"/>
      <point x="480" y="36" type="line"/>
      <point x="84" y="36" type="line"/>
    </contour>
  </outline>
</glyph>
<glyph name="J" format="2">
  <advance width="580"/>
  <unicode hex="004A"/>
  <outline>
    <contour>
      <point x="187" y="-10" type="curve" smooth="yes"/>
      <point x="378" y="-10"/>
      <point x="496" y="72"/>
      <point x="496" y="274" type="curve" smooth="yes"/>
      <point x="496" y="700" type="line"/>
      <point x="456" y="700" type="line"/>
      <point x="456" y="274" type="line" smooth="yes"/>
      <point x="456" y="90"/>
      <point x="353" y="26"/>
      <point x="187" y="26" type="curve" smooth="yes"/>
      <point x="154" y="26"/>
      <point x="123" y="30"/>
      <point x="96" y="36" type="curve"/>
      <point x="84" y="0" type="line"/>
      <point x="115" y="-7"/>
      <point x="150" y="-10"/>
    </contour>
  </outline>
</glyph>
<glyph name="K" format="2">
  <advance width="664"/>
  <unicode hex="004B"/>
  <outline>
    <contour>
      <point x="84" y="0" type="line"/>
      <point x="124" y="0" type="line"/>
      <point x="124" y="700" type="line"/>
      <point x="84" y="700" type="line"/>
    </contour>
    <contour>
      <point x="98" y="318" type="line"/>
      <point x="177" y="318" type="line"/>
      <point x="556" y="0" type="line"/>
      <point x="619" y="0" type="line"/>
      <point x="195" y="352" type="line"/>
      <point x="188" y="353" type="line"/>
      <point x="98" y="353" type="line"/>
    </contour>
    <contour>
      <point x="156" y="337" type="line"/>
      <point x="189" y="324" type="line"/>
      <point x="615" y="700" type="line"/>
      <point x="561" y="700" type="line"/>
    </contour>
  </outline>
</glyph>
<glyph name="L" format="2">
  <advance width="610"/>
  <unicode hex="004C"/>
  <outline>
    <contour>
      <point x="84" y="0" type="line"/>
      <point x="124" y="0" type="line"/>
      <point x="124" y="700" type="line"/>
      <point x="84" y="700" type="line"/>
    </contour>
    <contour>
      <point x="104" y="0" type="line"/>
      <point x="576" y="0" type="line"/>
      <point x="576" y="36" type="line"/>
      <point x="104" y="36" type="line"/>
    </contour>
  </outline>
</glyph>
<glyph name="M" format="2">
  <advance width="804"/>
  <unicode hex="004D"/>
  <outline>
    <contour>
      <point x="84" y="0" type="line"/>
      <point x="124" y="0" type="line"/>
      <point x="124" y="700" type="line"/>
      <point x="84" y="700" type="line"/>
    </contour>
    <contour>
      <point x="720" y="0" type="line"/>
      <point x="720" y="700" type="line"/>
      <point x="680" y="700" type="line"/>
      <point x="680" y="0" type="line"/>
    </contour>
    <contour>
      <point x="701" y="656" type="line"/>
      <point x="680" y="700" type="line"/>
      <point x="385" y="310" type="line"/>
      <point x="419" y="310" type="line"/>
      <point x="124" y="700" type="line"/>
      <point x="104" y="656" type="line"/>
      <point x="388" y="276" type="line"/>
      <point x="416" y="276" type="line"/>
    </contour>
  </outline>
</glyph>
<glyph name="N" format="2">
  <advance width="748"/>
  <unicode hex="004E"/>
  <outline>
    <contour>
      <point x="84" y="0" type="line"/>
      <point x="121" y="0" type="line"/>
      <point x="121" y="700" type="line"/>
      <point x="84" y="700" type="line"/>
    </contour>
    <contour>
      <point x="103" y="653" type="line"/>
      <point x="627" y="0" type="line"/>
      <point x="646" y="47" type="line"/>
      <point x="121" y="700" type="line"/>
    </contour>
    <contour>
      <point x="627" y="0" type="line"/>
      <point x="664" y="0" type="line"/>
      <point x="664" y="700" type="line"/>
      <point x="627" y="700" type="line"/>
    </contour>
  </outline>
</glyph>
<glyph name="O" format="2">
  <advance width="830"/>
  <unicode hex="004F"/>
  <outline>
    <contour>
      <point x="400" y="-10" type="curve" smooth="yes"/>
      <point x="430" y="-10" type="line" smooth="yes"/>
      <point x="637" y="-10"/>
      <point x="768" y="96"/>
      <point x="768" y="352" type="curve" smooth="yes"/>
      <point x="768" y="607"/>
      <point x="637" y="710"/>
      <point x="430" y="710" type="curve" smooth="yes"/>
      <point x="400" y="710" type="line" smooth="yes"/>
      <point x="192" y="710"/>
      <point x="62" y="607"/>
      <point x="62" y="352" type="curve" smooth="yes"/>
      <point x="62" y="96"/>
      <point x="192" y="-10"/>
    </contour>
    <contour>
      <point x="400" y="26" type="line" smooth="yes"/>
      <point x="218" y="26"/>
      <point x="102" y="112"/>
      <point x="102" y="352" type="curve" smooth="yes"/>
      <point x="102" y="591"/>
      <point x="218" y="674"/>
      <point x="400" y="674" type="curve" smooth="yes"/>
      <point x="430" y="674" type="line" smooth="yes"/>
      <point x="612" y="674"/>
      <point x="728" y="591"/>
      <point x="728" y="352" type="curve" smooth="yes"/>
      <point x="728" y="112"/>
      <point x="612" y="26"/>
      <point x="430" y="26" type="curve" smooth="yes"/>
    </contour>
  </outline>
</glyph>
<glyph name="P" format="2">
  <advance width="676"/>
  <unicode hex="0050"/>
  <outline>
    <contour>
      <point x="84" y="0" type="line"/>
      <point x="124" y="0" type="line"/>
      <point x="124" y="700" type="line"/>
      <point x="84" y="700" type="line"/>
    </contour>
    <contour>
      <point x="104" y="660" type="line"/>
      <point x="342" y="660" type="line" smooth="yes"/>
      <point x="535" y="660"/>
      <point x="603" y="569"/>
      <point x="603" y="432" type="curve" smooth="yes"/>
      <point x="603" y="295"/>
      <point x="535" y="205"/>
      <point x="342" y="205" type="curve" smooth="yes"/>
      <point x="104" y="205" type="line"/>
      <point x="104" y="165" type="line"/>
      <point x="332" y="165" type="line" smooth="yes"/>
      <point x="578" y="165"/>
      <point x="642" y="286"/>
      <point x="642" y="432" type="curve" smooth="yes"/>
      <point x="642" y="580"/>
      <point x="578" y="700"/>
      <point x="332" y="700" type="curve" smooth="yes"/>
      <point x="104" y="700" type="line"/>
    </contour>
  </outline>
</glyph>
<glyph name="Q" format="2">
  <advance width="830"/>
  <unicode hex="0051"/>
  <outline>
    <contour>
      <point x="481" y="-130" type="line"/>
      <point x="525" y="-130" type="line"/>
      <point x="426" y="13" type="line"/>
      <point x="394" y="-5" type="line"/>
    </contour>
    <component base="O"/>
  </outline>
</glyph>
<glyph name="R" format="2">
  <advance width="707"/>
  <unicode hex="0052"/>
  <outline>
    <contour>
      <point x="590" y="0" type="line"/>
      <point x="644" y="0" type="line"/>
      <point x="533" y="118" type="line" smooth="yes"/>
      <point x="479" y="172"/>
      <point x="452" y="192"/>
      <point x="423" y="191" type="curve"/>
      <point x="405" y="191" type="line"/>
    </contour>
    <contour>
      <point x="84" y="0" type="line"/>
      <point x="124" y="0" type="line"/>
      <point x="124" y="700" type="line"/>
      <point x="84" y="700" type="line"/>
    </contour>
    <contour>
      <point x="104" y="660" type="line"/>
      <point x="346" y="660" type="line" smooth="yes"/>
      <point x="535" y="660"/>
      <point x="602" y="569"/>
      <point x="602" y="432" type="curve" smooth="yes"/>
      <point x="602" y="295"/>
      <point x="535" y="205"/>
      <point x="346" y="205" type="curve" smooth="yes"/>
      <point x="104" y="205" type="line"/>
      <point x="104" y="165" type="line"/>
      <point x="332" y="165" type="line" smooth="yes"/>
      <point x="578" y="165"/>
      <point x="642" y="286"/>
      <point x="642" y="432" type="curve" smooth="yes"/>
      <point x="642" y="580"/>
      <point x="578" y="700"/>
      <point x="332" y="700" type="curve" smooth="yes"/>
      <point x="104" y="700" type="line"/>
    </contour>
  </outline>
</glyph>
<glyph name="S" format="2">
  <advance width="710"/>
  <unicode hex="0053"/>
  <outline>
    <contour>
      <point x="639" y="171" type="curve" smooth="yes"/>
      <point x="639" y="270"/>
      <point x="577" y="321"/>
      <point x="411" y="364" type="curve" smooth="yes"/>
      <point x="311" y="390" type="line" smooth="yes"/>
      <point x="190" y="422"/>
      <point x="122" y="461"/>
      <point x="122" y="541" type="curve" smooth="yes"/>
      <point x="122" y="617"/>
      <point x="194" y="673"/>
      <point x="351" y="673" type="curve" smooth="yes"/>
      <point x="368" y="673" type="line" smooth="yes"/>
      <point x="481" y="673"/>
      <point x="559" y="650"/>
      <point x="624" y="614" type="curve"/>
      <point x="643" y="649" type="line"/>
      <point x="576" y="684"/>
      <point x="490" y="710"/>
      <point x="373" y="710" type="curve" smooth="yes"/>
      <point x="357" y="710" type="line" smooth="yes"/>
      <point x="172" y="710"/>
      <point x="83" y="640"/>
      <point x="84" y="534" type="curve" smooth="yes"/>
      <point x="84" y="438"/>
      <point x="146" y="384"/>
      <point x="308" y="341" type="curve" smooth="yes"/>
      <point x="408" y="315" type="line" smooth="yes"/>
      <point x="543" y="278"/>
      <point x="601" y="248"/>
      <point x="601" y="165" type="curve" smooth="yes"/>
      <point x="601" y="83"/>
      <point x="526" y="28"/>
      <point x="345" y="28" type="curve" smooth="yes"/>
      <point x="328" y="28" type="line" smooth="yes"/>
      <point x="225" y="28"/>
      <point x="143" y="51"/>
      <point x="75" y="88" type="curve"/>
      <point x="58" y="53" type="line"/>
      <point x="128" y="17"/>
      <point x="216" y="-9"/>
      <point x="323" y="-9" type="curve" smooth="yes"/>
      <point x="338" y="-9" type="line" smooth="yes"/>
      <point x="548" y="-9"/>
      <point x="640" y="63"/>
    </contour>
  </outline>
</glyph>
<glyph name="T" format="2">
  <advance width="720"/>
  <unicode hex="0054"/>
  <outline>
    <contour>
      <point x="340" y="0" type="line"/>
      <point x="380" y="0" type="line"/>
      <point x="380" y="700" type="line"/>
      <point x="340" y="700" type="line"/>
    </contour>
    <contour>
      <point x="34" y="664" type="line"/>
      <point x="686" y="664" type="line"/>
      <point x="686" y="700" type="line"/>
      <point x="34" y="700" type="line"/>
    </contour>
  </outline>
</glyph>
<glyph name="U" format="2">
  <advance width="750"/>
  <unicode hex="0055"/>
  <outline>
    <contour>
      <point x="375" y="-10" type="curve" smooth="yes"/>
      <point x="554" y="-10"/>
      <point x="666" y="66"/>
      <point x="666" y="250" type="curve" smooth="yes"/>
      <point x="666" y="700" type="line"/>
      <point x="626" y="700" type="line"/>
      <point x="626" y="250" type="line" smooth="yes"/>
      <point x="626" y="86"/>
      <point x="529" y="26"/>
      <point x="375" y="26" type="curve" smooth="yes"/>
      <point x="221" y="26"/>
      <point x="124" y="86"/>
      <point x="124" y="250" type="curve" smooth="yes"/>
      <point x="124" y="700" type="line"/>
      <point x="84" y="700" type="line"/>
      <point x="84" y="250" type="line" smooth="yes"/>
      <point x="84" y="66"/>
      <point x="195" y="-10"/>
    </contour>
  </outline>
</glyph>
<glyph name="V" format="2">
  <advance width="708"/>
  <unicode hex="0056"/>
  <outline>
    <contour>
      <point x="679" y="700" type="line"/>
      <point x="636" y="700" type="line"/>
      <point x="357" y="0" type="line"/>
      <point x="397" y="0" type="line"/>
    </contour>
    <contour>
      <point x="78" y="700" type="line"/>
      <point x="28" y="700" type="line"/>
      <point x="312" y="0" type="line"/>
      <point x="357" y="0" type="line"/>
    </contour>
    <contour>
      <point x="388" y="38" type="line"/>
      <point x="322" y="38" type="line"/>
      <point x="322" y="0" type="line"/>
      <point x="388" y="0" type="line"/>
    </contour>
  </outline>
</glyph>
<glyph name="W" format="2">
  <advance width="859"/>
  <unicode hex="0057"/>
  <outline>
    <contour>
      <point x="830" y="700" type="line"/>
      <point x="788" y="700" type="line"/>
      <point x="617" y="62" type="line"/>
      <point x="625" y="62" type="line"/>
      <point x="447" y="700" type="line"/>
      <point x="414" y="700" type="line"/>
      <point x="242" y="58" type="line"/>
      <point x="253" y="58" type="line"/>
      <point x="73" y="700" type="line"/>
      <point x="29" y="700" type="line"/>
      <point x="227" y="0" type="line"/>
      <point x="261" y="0" type="line"/>
      <point x="430" y="646" type="line"/>
      <point x="419" y="645" type="line"/>
      <point x="602" y="0" type="line"/>
      <point x="636" y="0" type="line"/>
    </contour>
  </outline>
</glyph>
<glyph name="X" format="2">
  <advance width="648"/>
  <unicode hex="0058"/>
  <outline>
    <contour>
      <point x="570" y="0" type="line"/>
      <point x="621" y="0" type="line"/>
      <point x="336" y="366" type="line"/>
      <point x="87" y="700" type="line"/>
      <point x="36" y="700" type="line"/>
      <point x="310" y="343" type="line"/>
    </contour>
    <contour>
      <point x="29" y="-1" type="line"/>
      <point x="72" y="0" type="line"/>
      <point x="326" y="340" type="line"/>
      <point x="338" y="341" type="line"/>
      <point x="610" y="700" type="line"/>
      <point x="566" y="700" type="line"/>
      <point x="321" y="365" type="line"/>
      <point x="307" y="362" type="line"/>
    </contour>
  </outline>
</glyph>
<glyph name="Y" format="2">
  <advance width="648"/>
  <unicode hex="0059"/>
  <outline>
    <contour>
      <point x="624" y="700" type="line"/>
      <point x="579" y="700" type="line"/>
      <point x="321" y="206" type="line"/>
      <point x="340" y="194" type="line"/>
    </contour>
    <contour>
      <point x="72" y="700" type="line"/>
      <point x="24" y="700" type="line"/>
      <point x="306" y="194" type="line"/>
      <point x="338" y="206" type="line"/>
    </contour>
    <contour>
      <point x="344" y="237" type="line"/>
      <point x="304" y="237" type="line"/>
      <point x="304" y="0" type="line"/>
      <point x="344" y="0" type="line"/>
    </contour>
  </outline>
</glyph>
<glyph name="Z" format="2">
  <advance width="744"/>
  <unicode hex="005A"/>
  <outline>
    <contour>
      <point x="84" y="36" type="line"/>
      <point x="119" y="22" type="line"/>
      <point x="660" y="664" type="line"/>
      <point x="625" y="678" type="line"/>
    </contour>
    <contour>
      <point x="84" y="664" type="line"/>
      <point x="660" y="664" type="line"/>
      <point x="660" y="700" type="line"/>
      <point x="84" y="700" type="line"/>
    </contour>
    <contour>
      <point x="84" y="0" type="line"/>
      <point x="660" y="0" type="line"/>
      <point x="660" y="36" type="line"/>
      <point x="84" y="36" type="line"/>
    </contour>
  </outline>
</glyph>
